<?xml version="1.0" encoding="UTF-8" standalone="no"?>
<!-- Created with Inkscape (http://www.inkscape.org/) -->

<svg
   xmlns:dc="http://purl.org/dc/elements/1.1/"
   xmlns:cc="http://creativecommons.org/ns#"
   xmlns:rdf="http://www.w3.org/1999/02/22-rdf-syntax-ns#"
   xmlns:svg="http://www.w3.org/2000/svg"
   xmlns="http://www.w3.org/2000/svg"
   xmlns:sodipodi="http://sodipodi.sourceforge.net/DTD/sodipodi-0.dtd"
   xmlns:inkscape="http://www.inkscape.org/namespaces/inkscape"
   width="5.7120895mm"
   height="5.5924978mm"
   viewBox="0 0 5.7120895 5.5924978"
   version="1.1"
   id="svg1197"
   inkscape:version="0.92.3 (2405546, 2018-03-11)"
   sodipodi:docname="gear.svg">
  <defs
     id="defs1191" />
  <sodipodi:namedview
     id="base"
     pagecolor="#ffffff"
     bordercolor="#666666"
     borderopacity="1.0"
     inkscape:pageopacity="0.0"
     inkscape:pageshadow="2"
     inkscape:zoom="0.35"
     inkscape:cx="-449.2055"
     inkscape:cy="193.42564"
     inkscape:document-units="mm"
     inkscape:current-layer="layer1"
     showgrid="false"
     fit-margin-top="0"
     fit-margin-left="0"
     fit-margin-right="0"
     fit-margin-bottom="0"
     inkscape:window-width="1366"
     inkscape:window-height="740"
     inkscape:window-x="1366"
     inkscape:window-y="0"
     inkscape:window-maximized="1" />
  <metadata
     id="metadata1194">
    <rdf:RDF>
      <cc:Work
         rdf:about="">
        <dc:format>image/svg+xml</dc:format>
        <dc:type
           rdf:resource="http://purl.org/dc/dcmitype/StillImage" />
        <dc:title></dc:title>
      </cc:Work>
    </rdf:RDF>
  </metadata>
  <g
     inkscape:label="Camada 1"
     inkscape:groupmode="layer"
     id="layer1"
     transform="translate(-47.792765,-194.41804)">
    <g
       id="g1107"
       transform="matrix(0.26458333,0,0,0.26458333,47.792765,194.35824)"
       style="fill:#004300;fill-opacity:1">
      <g
         id="g1036"
         style="fill:#004300;fill-opacity:1">
        <path
           id="path1004"
           d="M 18.622,8.371 18.077,7.076 c 0,0 1.268,-2.861 1.156,-2.971 L 17.554,2.466 C 17.438,2.353 14.576,3.659 14.576,3.659 l -1.32,-0.533 c 0,0 -1.166,-2.9 -1.326,-2.9 H 9.561 c -0.165,0 -1.244,2.906 -1.244,2.906 L 6.999,3.667 c 0,0 -2.922,-1.242 -3.034,-1.131 L 2.289,4.177 C 2.173,4.29 3.507,7.093 3.507,7.093 L 2.962,8.386 C 2.962,8.386 0,9.527 0,9.681 v 2.322 c 0,0.162 2.969,1.219 2.969,1.219 l 0.545,1.291 c 0,0 -1.268,2.859 -1.157,2.969 l 1.678,1.643 C 4.149,19.236 7.012,17.93 7.012,17.93 l 1.321,0.535 c 0,0 1.166,2.898 1.327,2.898 h 2.369 c 0.164,0 1.244,-2.906 1.244,-2.906 l 1.322,-0.535 c 0,0 2.916,1.242 3.029,1.133 l 1.678,-1.641 c 0.117,-0.115 -1.22,-2.916 -1.22,-2.916 l 0.544,-1.293 c 0,0 2.963,-1.143 2.963,-1.299 V 9.586 C 21.59,9.425 18.622,8.371 18.622,8.371 Z m -4.366,2.423 c 0,1.867 -1.553,3.387 -3.461,3.387 -1.906,0 -3.461,-1.52 -3.461,-3.387 0,-1.867 1.555,-3.385 3.461,-3.385 1.909,0.001 3.461,1.518 3.461,3.385 z"
           inkscape:connector-curvature="0"
           style="fill:#004300;fill-opacity:1" />
        <g
           id="g1006"
           style="fill:#004300;fill-opacity:1" />
        <g
           id="g1008"
           style="fill:#004300;fill-opacity:1" />
        <g
           id="g1010"
           style="fill:#004300;fill-opacity:1" />
        <g
           id="g1012"
           style="fill:#004300;fill-opacity:1" />
        <g
           id="g1014"
           style="fill:#004300;fill-opacity:1" />
        <g
           id="g1016"
           style="fill:#004300;fill-opacity:1" />
        <g
           id="g1018"
           style="fill:#004300;fill-opacity:1" />
        <g
           id="g1020"
           style="fill:#004300;fill-opacity:1" />
        <g
           id="g1022"
           style="fill:#004300;fill-opacity:1" />
        <g
           id="g1024"
           style="fill:#004300;fill-opacity:1" />
        <g
           id="g1026"
           style="fill:#004300;fill-opacity:1" />
        <g
           id="g1028"
           style="fill:#004300;fill-opacity:1" />
        <g
           id="g1030"
           style="fill:#004300;fill-opacity:1" />
        <g
           id="g1032"
           style="fill:#004300;fill-opacity:1" />
        <g
           id="g1034"
           style="fill:#004300;fill-opacity:1" />
      </g>
      <g
         id="g1038"
         style="fill:#004300;fill-opacity:1" />
      <g
         id="g1040"
         style="fill:#004300;fill-opacity:1" />
      <g
         id="g1042"
         style="fill:#004300;fill-opacity:1" />
      <g
         id="g1044"
         style="fill:#004300;fill-opacity:1" />
      <g
         id="g1046"
         style="fill:#004300;fill-opacity:1" />
      <g
         id="g1048"
         style="fill:#004300;fill-opacity:1" />
      <g
         id="g1050"
         style="fill:#004300;fill-opacity:1" />
      <g
         id="g1052"
         style="fill:#004300;fill-opacity:1" />
      <g
         id="g1054"
         style="fill:#004300;fill-opacity:1" />
      <g
         id="g1056"
         style="fill:#004300;fill-opacity:1" />
      <g
         id="g1058"
         style="fill:#004300;fill-opacity:1" />
      <g
         id="g1060"
         style="fill:#004300;fill-opacity:1" />
      <g
         id="g1062"
         style="fill:#004300;fill-opacity:1" />
      <g
         id="g1064"
         style="fill:#004300;fill-opacity:1" />
      <g
         id="g1066"
         style="fill:#004300;fill-opacity:1" />
    </g>
  </g>
</svg>
